<svg width="21" height="44" viewBox="0 0 21 44" fill="none" xmlns="http://www.w3.org/2000/svg">
<path d="M9.16371 32.0444C8.74681 31.9316 8.54661 31.5471 8.64971 31.0428L9.89161 26.0817L9.84441 26.0605C9.75391 26.0167 9.66001 25.98 9.56391 25.9508C9.33711 25.8894 9.10201 25.8258 8.89101 25.7688L8.68091 25.7119L8.63841 25.7004C8.42161 25.6418 8.09411 25.549 7.78891 25.4664C7.44541 25.3735 7.1511 25.2939 6.88773 25.2328C6.70661 25.1989 6.52191 25.2317 6.37073 25.3244C5.59595 25.93 4.81859 26.546 4.07278 27.1426L4.06167 27.1514L3.9835 27.2147L3.98231 27.2195L3.90581 27.2833C3.15318 27.8823 2.37503 28.5014 1.60418 29.1055C1.57473 29.1272 1.54759 29.1502 1.52434 29.1684L1.51755 29.1742C1.47628 29.2121 1.43088 29.2457 1.38208 29.2744C1.29614 29.3323 1.19719 29.3708 1.09218 29.3872C0.987165 29.4036 0.878666 29.3975 0.774306 29.3694C0.630766 29.3307 0.501365 29.2505 0.404095 29.14C0.306835 29.0295 0.246535 28.8942 0.231595 28.7528C0.221705 28.6073 0.235205 28.4622 0.271615 28.3227C0.464345 27.5528 0.676085 26.7069 0.826415 26.0886L0.912765 25.7437C1.32773 24.0683 1.75532 22.3388 2.1995 20.6249C2.39257 19.7077 2.84235 18.8686 3.50144 18.196C4.16053 17.5234 5.00452 17.0421 5.94445 16.8031C6.41945 16.6781 6.91181 16.6126 7.40961 16.6081C7.52791 16.6208 7.64451 16.5881 7.73381 16.5173C7.82311 16.4464 7.87791 16.3431 7.88621 16.2301C8.03961 15.578 8.20491 14.9283 8.36471 14.3007L8.36751 14.2896C8.57881 13.4454 8.80481 12.5747 8.99871 11.697C9.67591 8.7654 11.0909 6.06675 13.1228 3.83214C13.9891 2.86092 14.8999 1.97863 16.0023 0.953028C16.3024 0.668388 16.5987 0.555088 16.8597 0.625688C17.0175 0.691518 17.158 0.792508 17.2691 0.919988C17.3802 1.04746 17.4585 1.19759 17.4973 1.35745C18.7594 4.533 19.3125 7.9007 19.1196 11.2355C19.0491 12.0514 18.9147 12.8582 18.7174 13.6494C18.3068 15.3749 17.8673 17.1307 17.4115 18.866C17.3913 18.9107 17.3808 18.9591 17.3806 19.0086C17.3804 19.058 17.3905 19.1074 17.4103 19.1539C17.43 19.2004 17.4591 19.2431 17.4958 19.2794C17.5325 19.3157 17.576 19.3449 17.6239 19.3653C18.6973 19.9976 19.5515 20.929 20.066 22.0282C20.5387 23.1299 20.6302 24.3338 20.3267 25.4569C19.9043 27.2012 19.4604 28.9567 19.0294 30.6573L19.0258 30.6715C18.8164 31.5079 18.5884 32.4008 18.37 33.2736C18.3558 33.4452 18.2774 33.6034 18.1492 33.7192C18.021 33.835 17.8514 33.9007 17.6717 33.9042C17.589 33.9069 17.5058 33.8977 17.4248 33.8771C17.2932 33.8322 17.174 33.7568 17.0781 33.6578C16.9822 33.5588 16.9126 33.4393 16.8758 33.3104C16.0516 31.3006 15.26 29.4095 14.4564 27.5269C14.3953 27.402 14.2982 27.2953 14.1772 27.2199C13.9051 27.1404 13.6174 27.0592 13.2722 26.9658C13.0021 26.8927 12.7344 26.8203 12.4126 26.7333L12.2775 26.6967C11.9657 26.6124 11.642 26.529 11.3127 26.4399L10.0648 31.4248C9.93681 31.9148 9.58481 32.1583 9.16371 32.0444ZM17.0551 20.6417C17.0497 20.6596 17.0426 20.6769 17.0341 20.6935L17.0304 20.7085C17.0189 20.7293 17.0096 20.7511 17.0025 20.7737L15.6421 26.2079C15.6204 26.3617 15.6422 26.5202 15.7053 26.6668C16.2328 27.945 16.7616 29.204 17.3515 30.5996C17.3941 30.6899 17.4436 30.7773 17.4997 30.861L17.5079 30.8742L19.0798 24.595C19.1009 24.5007 19.1131 24.4045 19.1162 24.3074L19.1198 24.2932L19.1233 24.2789C19.1261 24.2324 19.1286 24.1798 19.1356 24.1268C19.1404 23.4345 18.9502 22.7456 18.5852 22.1325C18.2202 21.5195 17.6939 21.0051 17.0618 20.6435L17.0551 20.6417ZM7.46101 18.0032C7.29921 18.0051 7.13831 18.0181 6.97947 18.0419C6.17988 18.1195 5.43529 18.4322 4.84629 18.9376C4.25728 19.443 3.85223 20.1169 3.68584 20.8682C3.35792 22.1177 3.04676 23.3784 2.74693 24.5975L2.65542 24.9631C2.53103 25.46 2.40228 25.9743 2.27611 26.4783C2.26468 26.5385 2.25944 26.5999 2.26048 26.6616L2.25791 26.6719C2.25395 26.6877 2.25729 26.7064 2.25627 26.7247C2.29561 26.6961 2.33839 26.6719 2.38378 26.6527L2.38795 26.6539C2.40696 26.6455 2.42204 26.6386 2.43732 26.6309C2.9731 26.2047 3.51423 25.7749 4.056 25.3462L4.12719 25.2894L4.26937 25.1766C4.79281 24.7618 5.31426 24.3478 5.83371 23.9347C5.96792 23.8145 6.0576 23.6553 6.09013 23.4794C6.32891 22.586 6.55288 21.6699 6.77016 20.7842L6.80185 20.6576C6.8995 20.2675 7.01691 19.7806 7.13081 19.3256L7.46101 18.0032ZM12.7166 17.8266C12.8768 17.8793 13.0155 17.9827 13.1092 18.1194C13.203 18.2561 13.2461 18.4176 13.2313 18.5766C13.2144 18.7183 13.1868 18.8583 13.1487 18.9953L11.6208 25.0989L14.1905 25.7941L17.3349 13.2331C17.7677 11.4974 17.877 9.6888 17.6578 7.8891C17.4304 6.07807 17.0299 4.28364 16.4616 2.52869C16.3918 2.59428 16.3268 2.64766 16.2791 2.68883C16.1971 2.75304 16.1217 2.82455 16.0538 2.90245C15.8494 3.12849 15.6399 3.35736 15.4388 3.58091L15.428 3.59234C14.7032 4.38219 13.9578 5.1977 13.2909 6.04459C12 7.7014 11.0737 9.601 10.565 11.6349C9.93201 14.2845 9.24871 16.9712 8.58871 19.5688C8.25991 20.8645 7.9192 22.2043 7.5882 23.5265L7.47491 23.9791L10.2122 24.7195L11.7553 18.555C11.7625 18.5265 11.77 18.4964 11.7777 18.4656C11.7913 18.3675 11.8233 18.2735 11.8722 18.1878C11.9362 18.0419 12.0528 17.9246 12.2016 17.8567C12.3503 17.7887 12.5217 17.7745 12.6854 17.8164L12.7166 17.8266Z" fill="#141416"/>
<path d="M3.85574 35.5964L5.17223 30.5078C5.20441 30.3681 5.24763 30.2311 5.30155 30.098C5.36934 29.9542 5.49172 29.8395 5.64668 29.7746C5.80164 29.7097 5.97904 29.6989 6.14698 29.744C6.31741 29.7823 6.4693 29.8763 6.57394 30.008C6.67857 30.1398 6.72871 30.3003 6.71486 30.4592C6.70432 30.5752 6.68249 30.6897 6.64963 30.8013L3.93985 41.2754C3.79449 41.7473 3.4357 41.9491 2.99946 41.8164C2.56322 41.6837 2.36508 41.3582 2.48798 40.8832C2.96097 39.1462 3.41689 37.384 3.85574 35.5964Z" fill="#141416"/>
<path d="M10.1123 37.9782L11.2779 33.4608C11.3056 33.3032 11.3682 33.1539 11.4617 33.022C11.5374 32.8942 11.6616 32.798 11.8116 32.7509C11.9616 32.7039 12.1272 32.7092 12.2781 32.7659C12.4352 32.8035 12.575 32.8911 12.6725 33.0128C12.77 33.1345 12.819 33.2824 12.8106 33.4302C12.8061 33.6024 12.7781 33.7725 12.7273 33.9365L10.3824 43.0245C10.2329 43.5137 9.86471 43.7568 9.42491 43.6439C8.98511 43.531 8.78521 43.1217 8.90791 42.6459L10.1123 37.9782Z" fill="#141416"/>
<path d="M6.30106 39.1363L6.94708 36.6048C7.07787 36.0921 7.46247 35.8536 7.89537 35.967C7.99927 36.0045 8.09507 36.0608 8.17687 36.1327C8.25877 36.2045 8.32507 36.2904 8.37197 36.3853C8.41887 36.4802 8.44537 36.5822 8.44997 36.6851C8.45447 36.7881 8.43697 36.89 8.39837 36.9848L7.09117 42.1074C7.07807 42.2121 7.04217 42.3122 6.98549 42.4016C6.92882 42.4909 6.85267 42.5676 6.76174 42.6269C6.67082 42.6861 6.56707 42.7267 6.45691 42.7461C6.34676 42.7655 6.23256 42.7633 6.12139 42.7396C5.69269 42.6062 5.48717 42.2361 5.6184 41.7218C5.86193 40.8571 6.07896 40.0066 6.30106 39.1363Z" fill="#141416"/>
<path d="M13.7227 14.1242L13.6856 14.1141C13.041 13.9317 12.4844 13.5157 12.1343 12.9548C11.7842 12.3939 11.6684 11.7324 11.8115 11.1112C11.9765 10.4956 12.3864 9.97739 12.9539 9.6671C13.5213 9.35669 14.2015 9.27879 14.8494 9.44979L14.8857 9.45969C15.2151 9.55269 15.5252 9.707 15.7981 9.9139C16.071 10.1207 16.3014 10.376 16.4759 10.665C16.6466 10.9399 16.7609 11.2424 16.8124 11.5551C16.8638 11.8678 16.8514 12.1845 16.7757 12.487C16.6936 12.7906 16.5496 13.0729 16.3521 13.3176C16.1545 13.5623 15.9072 13.7647 15.6243 13.9131C15.0548 14.224 14.3717 14.2999 13.7227 14.1242ZM14.5436 10.7483C14.2563 10.6708 13.9541 10.7055 13.7031 10.8448C13.4522 10.9842 13.273 11.2167 13.205 11.4915C13.1493 11.7674 13.2063 12.0583 13.3641 12.3039C13.5219 12.5495 13.7686 12.7312 14.0531 12.8114C14.3445 12.8822 14.6478 12.8409 14.8982 12.6963C15.0211 12.6264 15.1269 12.5323 15.2092 12.4199C15.2915 12.3075 15.3486 12.179 15.3771 12.0423C15.4311 11.7715 15.3747 11.4864 15.2197 11.2457C15.0646 11.005 14.8226 10.8269 14.5436 10.7483Z" fill="#141416"/>
</svg>
